<svg xmlns="http://www.w3.org/2000/svg" xmlns:xlink="http://www.w3.org/1999/xlink" id="Layer_1" width="60" height="48" x="0" y="0" enable-background="new -4 -4 60 48" version="1.1" viewBox="-4 -4 60 48" xml:space="preserve"><g><circle cx="-2" cy="-2" r="2" fill="#D9083C"/><circle cx="10" cy="-2" r="2" fill="#D9083C"/><circle cx="22" cy="-2" r="2" fill="#D9083C"/><circle cx="34" cy="-2" r="2" fill="#D9083C"/><circle cx="46" cy="-2" r="2" fill="#D9083C"/><circle cx="-2" cy="10" r="2" fill="#D9083C"/><circle cx="10" cy="10" r="2" fill="#D9083C"/><circle cx="22" cy="10" r="2" fill="#D9083C"/><circle cx="34" cy="10" r="2" fill="#D9083C"/><circle cx="46" cy="10" r="2" fill="#D9083C"/><circle cx="-2" cy="22" r="2" fill="#D9083C"/><circle cx="10" cy="22" r="2" fill="#D9083C"/><circle cx="22" cy="22" r="2" fill="#D9083C"/><circle cx="34" cy="22" r="2" fill="#D9083C"/><circle cx="46" cy="22" r="2" fill="#D9083C"/><circle cx="-2" cy="34" r="2" fill="#D9083C"/><circle cx="10" cy="34" r="2" fill="#D9083C"/><circle cx="22" cy="34" r="2" fill="#D9083C"/><circle cx="34" cy="34" r="2" fill="#D9083C"/><circle cx="46" cy="34" r="2" fill="#D9083C"/></g></svg>